<svg width="695" height="78" viewBox="0 0 695 78" fill="none" xmlns="http://www.w3.org/2000/svg">
<g clip-path="url(#clip0_19992_36232)">
<path d="M70.8005 16.4599C80.0305 29.9699 80.0505 47.7199 70.8505 61.1899C69.8405 62.6799 67.7505 62.8499 66.4005 61.6599L54.9905 51.6699C53.7305 50.5699 53.5705 48.6899 54.4605 47.2699C58.2405 41.2299 58.2605 35.8299 54.5005 29.7999C53.6005 28.3499 53.7905 26.4299 55.1005 25.3399L66.4005 15.9299C67.7605 14.7999 69.8005 14.9899 70.8005 16.4499V16.4599Z" fill="#AA80FF"/>
<path d="M6.93042 16.4599C-2.29958 29.9699 -2.31958 47.7199 6.88042 61.1899C7.90042 62.6799 9.98042 62.8499 11.3304 61.6599L22.7404 51.6699C24.0004 50.5699 24.1604 48.6899 23.2704 47.2699C19.4904 41.2299 19.4704 35.8299 23.2304 29.7999C24.1304 28.3499 23.9404 26.4299 22.6304 25.3399L11.3304 15.9299C9.97042 14.7999 7.93042 14.9899 6.93042 16.4499V16.4599Z" fill="#AA80FF"/>
<path d="M61.2599 70.76C47.7499 79.99 29.9899 80 16.5199 70.81C15.0299 69.8 14.8599 67.72 16.0499 66.36L26.0399 54.96C27.1399 53.7 29.0199 53.54 30.4399 54.43C36.4799 58.21 41.8899 58.22 47.9199 54.47C49.3699 53.57 51.2899 53.76 52.3799 55.07L61.7899 66.37C62.9199 67.73 62.7299 69.77 61.2599 70.77V70.76Z" fill="#AA80FF"/>
<path d="M61.2599 6.92995C47.7499 -2.30005 29.9899 -2.31004 16.5199 6.87995C15.0299 7.88995 14.8599 9.96995 16.0499 11.33L26.0399 22.73C27.1399 23.99 29.0199 24.15 30.4399 23.26C36.4799 19.48 41.8899 19.46 47.9199 23.22C49.3699 24.12 51.2899 23.93 52.3799 22.62L61.7899 11.32C62.9199 9.95995 62.7299 7.91995 61.2599 6.91995V6.92995Z" fill="#AA80FF"/>
<path d="M116.62 26.31H105.51V18.61H136.93V26.31H125.82V59.09H116.63V26.31H116.62Z" fill="#050024"/>
<path d="M144.49 18.61H169.82V26.31H153.61V34.44H167.39V42.08H153.61V51.39H170.44V59.09H144.49V18.61Z" fill="#050024"/>
<path d="M176.59 39.1C176.59 25.69 185.47 17.87 195.71 17.87C200.93 17.87 205.15 20.35 207.88 23.15L203.04 28.99C200.99 27.13 198.82 25.76 195.9 25.76C190.37 25.76 185.97 30.66 185.97 38.8C185.97 46.94 189.82 51.96 195.78 51.96C199.07 51.96 201.68 50.28 203.67 48.17L208.51 53.88C205.16 57.79 200.69 59.84 195.41 59.84C185.17 59.84 176.6 52.7 176.6 39.1H176.59Z" fill="#050024"/>
<path d="M215.891 18.61H225.021V34.19H238.991V18.61H248.181V59.09H238.991V42.2H225.021V59.09H215.891V18.61Z" fill="#050024"/>
<path d="M278.04 26.31H266.93V18.61H298.35V26.31H287.24V59.09H278.05V26.31H278.04Z" fill="#050024"/>
<path d="M301.02 38.66C301.02 25.44 308.47 17.86 319.4 17.86C330.33 17.86 337.78 25.5 337.78 38.66C337.78 51.82 330.33 59.83 319.4 59.83C308.47 59.83 301.02 51.88 301.02 38.66ZM328.4 38.66C328.4 30.59 324.92 25.75 319.4 25.75C313.88 25.75 310.4 30.59 310.4 38.66C310.4 46.73 313.88 51.95 319.4 51.95C324.92 51.95 328.4 46.8 328.4 38.66Z" fill="#050024"/>
<path d="M365.71 26.31H354.6V18.61H386.02V26.31H374.91V59.09H365.72V26.31H365.71Z" fill="#050024"/>
<path d="M392.35 18.61H401.48V34.19H415.45V18.61H424.64V59.09H415.45V42.2H401.48V59.09H392.35V18.61Z" fill="#050024"/>
<path d="M434.199 18.61H459.529V26.31H443.319V34.44H457.099V42.08H443.319V51.39H460.149V59.09H434.199V18.61Z" fill="#050024"/>
<path d="M480.641 18.61H495.231C503.801 18.61 510.811 21.59 510.811 31.21C510.811 37.17 507.951 40.96 503.611 42.88L512.801 59.09H502.561L494.801 44.5H489.771V59.09H480.641V18.61ZM494.481 37.23C499.261 37.23 501.871 35.18 501.871 31.21C501.871 27.24 499.261 25.87 494.481 25.87H489.761V37.23H494.481Z" fill="#050024"/>
<path d="M519.939 18.61H545.269V26.31H529.059V34.44H542.839V42.08H529.059V51.39H545.889V59.09H519.939V18.61Z" fill="#050024"/>
<path d="M552.6 54L557.82 47.73C560.74 50.21 564.46 51.95 567.82 51.95C571.61 51.95 573.47 50.46 573.47 48.04C573.47 45.49 571.17 44.69 567.63 43.2L562.35 40.97C558.19 39.29 554.22 35.82 554.22 29.92C554.22 23.21 560.18 17.87 568.62 17.87C573.28 17.87 578.18 19.73 581.66 23.21L577 28.98C574.33 26.93 571.85 25.75 568.62 25.75C565.39 25.75 563.47 27.12 563.47 29.41C563.47 31.89 566.14 32.76 569.62 34.19L574.84 36.3C579.75 38.29 582.85 41.58 582.85 47.29C582.85 54 577.26 59.83 567.58 59.83C562.3 59.83 556.71 57.84 552.62 53.99L552.6 54Z" fill="#050024"/>
<path d="M589.039 39.1C589.039 25.69 597.919 17.87 608.159 17.87C613.379 17.87 617.599 20.35 620.329 23.15L615.489 28.99C613.439 27.13 611.269 25.76 608.349 25.76C602.819 25.76 598.419 30.66 598.419 38.8C598.419 46.94 602.269 51.96 608.229 51.96C611.519 51.96 614.129 50.28 616.119 48.17L620.959 53.88C617.609 57.79 613.139 59.84 607.859 59.84C597.619 59.84 589.049 52.7 589.049 39.1H589.039Z" fill="#050024"/>
<path d="M626.98 40.34V18.61H636.17V41.27C636.17 49.22 638.65 51.95 643.19 51.95C647.73 51.95 650.331 49.22 650.331 41.27V18.61H659.151V40.34C659.151 53.94 653.62 59.84 643.19 59.84C632.76 59.84 626.98 53.94 626.98 40.34Z" fill="#050024"/>
<path d="M668.51 18.61H693.84V26.31H677.63V34.44H691.41V42.08H677.63V51.39H694.46V59.09H668.51V18.61Z" fill="#050024"/>
</g>
<defs>
<clipPath id="clip0_19992_36232">
<rect width="694.47" height="77.69" fill="white"/>
</clipPath>
</defs>
</svg>
